<svg height="1188pt" viewBox="-79 0 1188 1188.437" width="1188pt" xmlns="http://www.w3.org/2000/svg"><path d="m557.902344 228.15625-3.40625 3.386719-3.402344-3.386719c-62.539062-61.152344-162.808594-60.027344-223.960938 2.507812-60.1875 61.550782-60.1875 159.902344 0 221.453126l223.960938 223.980468 3.402344-3.386718 3.40625 3.386718 223.957031-223.980468c61.152344-62.535157 60.03125-162.804688-2.507813-223.957032-61.546874-60.1875-159.902343-60.1875-221.449218-.003906zm-188.78125 41.988281c-38.589844 38.683594-38.589844 101.300781 0 139.984375-38.652344-38.664062-38.640625-101.335937.019531-139.984375 18.5625-18.554687 43.734375-28.980469 69.980469-28.980469-26.269532-.085937-51.480469 10.351563-70 28.980469zm0 0" fill="#ffeb99"/><path d="m997.941406 304.15625c-81.152344-174.515625-251.347656-290.582031-443.445312-302.414062l-19.082032-1.742188-17.460937.4375c-59.273437 2.167969-117.363281 17.199219-170.253906 44.046875-140.621094 70.300781-229.25 214.226563-228.730469 371.445313v73.703124l-115.949219 193.253907c-5.628906 9.371093-2.597656 21.535156 6.773438 27.167969 3.078125 1.847656 6.601562 2.824218 10.191406 2.824218h123.929687l-12.019531 178.449219c-9.15625 52.789063 25.632813 103.195313 78.238281 113.355469 1.300782.265625 2.628907.398437 3.960938.394531.707031 0 1.414062-.039063 2.117188-.117187l120.523437-13.066407v176.308594c0 10.933594 8.863281 19.796875 19.796875 19.796875h475.121094c10.929687 0 19.796875-8.863281 19.796875-19.796875v-196.738281l154.6875-382.234375c33.988281-92.550781 31.054687-194.628907-8.195313-285.074219zm-28.804687 270.996094-155.839844 385.183594c-1.078125 2.820312-1.492187 5.847656-1.207031 8.851562 0 .414062-.238282.769531-.238282 1.1875v178.03125h-435.523437v-178.171875c0-.414063-.21875-.769531-.238281-1.1875-.019532-.414063.175781-.867187.117187-1.324219-.238281-1.128906-.589843-2.230468-1.050781-3.285156-.210938-.871094-.492188-1.726562-.832031-2.554688-.785157-1.695312-1.816407-3.261718-3.066407-4.652343-.207031-.363281-.429687-.710938-.671874-1.050781-.21875-.175782-.457032-.335938-.675782-.535157-4.097656-4.03125-9.773437-6.039062-15.5-5.484375l-139.328125 15.085938c-30.726562-7.75-50.011719-38.195313-43.890625-69.289063l13.660156-201.53125c.769532-10.902343-7.445312-20.371093-18.351562-21.140625-.007812 0-.011719 0-.019531 0-1.484375 0-111.453125 0-111.453125 0l100.765625-168.035156c.179687-.410156.332031-.832031.453125-1.265625.574218-1.195313 1.019531-2.449219 1.328125-3.742187.394531-1.289063.660156-2.617188.789062-3.957032 0-.457031.257813-.851562.257813-1.328125v-79.027343c-.53125-142.292969 79.609375-272.59375 206.835937-336.308594 47.765625-24.25 100.226563-37.839844 153.761719-39.832032h15.835938c183.828124 5.191407 348.988281 113.667969 426.777343 280.304688 35.039063 80.941406 37.65625 172.246094 7.304688 255.058594zm0 0"/><path d="m554.496094 204.363281c-74.988282-63.714843-187.429688-54.574219-251.140625 20.414063-60.085938 70.71875-55.832031 175.710937 9.78125 241.335937l223.957031 224c4.558594 4.558594 11.050781 6.613281 17.402344 5.503907 1.125.195312 2.265625.296874 3.40625.296874 5.25-.003906 10.285156-2.089843 13.996094-5.800781l223.957031-224c69.574219-69.585937 69.5625-182.398437-.023438-251.972656-65.621093-65.609375-170.617187-69.863281-241.335937-9.777344zm213.371094 233.757813-213.371094 213.386718-213.367188-213.386718c-54.121094-54.121094-54.121094-141.867188 0-195.988282 54.117188-54.117187 141.863282-54.117187 195.984375 0l3.40625 3.40625c7.730469 7.726563 20.261719 7.726563 27.992188 0l3.40625-3.40625c54.121093-54.117187 141.867187-54.117187 195.988281 0 54.117188 54.121094 54.117188 141.867188 0 195.988282zm0 0"/><path d="m439.121094 221.367188c-65.601563.003906-118.777344 53.183593-118.773438 118.785156 0 31.492187 12.507813 61.699218 34.777344 83.972656 7.863281 7.59375 20.398438 7.375 27.992188-.488281 7.410156-7.671875 7.410156-19.832031 0-27.503907-30.921876-30.929687-30.914063-81.070312.015624-111.988281 14.851563-14.84375 34.988282-23.183593 55.988282-23.183593 10.933594 0 19.796875-8.863282 19.796875-19.796876 0-10.933593-8.863281-19.796874-19.796875-19.796874zm0 0"/></svg>